<?xml version="1.0" encoding="iso-8859-1"?>
<!-- Generator: Adobe Illustrator 17.1.0, SVG Export Plug-In . SVG Version: 6.00 Build 0)  -->
<!DOCTYPE svg PUBLIC "-//W3C//DTD SVG 1.1//EN" "http://www.w3.org/Graphics/SVG/1.1/DTD/svg11.dtd">
<svg xmlns="http://www.w3.org/2000/svg" xmlns:xlink="http://www.w3.org/1999/xlink" version="1.1" id="Capa_1" x="0px" y="0px" viewBox="0 0 295.926 295.926" style="enable-background:new 0 0 295.926 295.926;" xml:space="preserve" width="512px" height="512px">
<path d="M258.896,0H241.83H54.096H37.03c-3.59,0-6.5,2.91-6.5,6.5s2.91,6.5,6.5,6.5h10.566v36.163c0,3.59,2.91,6.5,6.5,6.5h10.567  v70.306c0,3.59,2.91,6.5,6.5,6.5h19.1v50.283c0,1.497,0.511,2.871,1.361,3.97c-0.875,2.058-1.361,4.321-1.361,6.695  c0,4.032,1.407,7.736,3.742,10.669c-2.336,2.932-3.742,6.636-3.742,10.668s1.406,7.736,3.742,10.668  c-2.336,2.932-3.742,6.636-3.742,10.668s1.406,7.736,3.742,10.668c-2.336,2.932-3.742,6.636-3.742,10.668s1.407,7.736,3.743,10.668  c-2.336,2.933-3.743,6.637-3.743,10.668c0,9.464,7.699,17.163,17.163,17.163H188.5c9.464,0,17.163-7.699,17.163-17.163  c0-4.032-1.407-7.736-3.743-10.668c2.336-2.933,3.743-6.637,3.743-10.668s-1.406-7.736-3.742-10.668  c2.336-2.932,3.742-6.636,3.742-10.668s-1.406-7.736-3.742-10.668c2.336-2.932,3.742-6.636,3.742-10.668s-1.407-7.736-3.742-10.668  c2.336-2.933,3.742-6.637,3.742-10.669c0-2.374-0.486-4.637-1.361-6.695c0.85-1.099,1.361-2.473,1.361-3.97v-50.283h19.1  c3.59,0,6.5-2.91,6.5-6.5V55.663h10.567c3.59,0,6.5-2.91,6.5-6.5V13h10.566c3.59,0,6.5-2.91,6.5-6.5S262.486,0,258.896,0z   M188.5,261.589h-81.074c-2.295,0-4.163-1.867-4.163-4.163s1.868-4.163,4.163-4.163H188.5c2.295,0,4.163,1.867,4.163,4.163  S190.795,261.589,188.5,261.589z M188.5,240.253h-81.074c-2.295,0-4.163-1.867-4.163-4.163s1.868-4.163,4.163-4.163H188.5  c2.295,0,4.163,1.867,4.163,4.163S190.795,240.253,188.5,240.253z M188.5,218.917h-81.074c-2.295,0-4.163-1.867-4.163-4.163  s1.868-4.163,4.163-4.163H188.5c2.295,0,4.163,1.867,4.163,4.163S190.795,218.917,188.5,218.917z M192.663,193.417  c0,2.296-1.868,4.164-4.163,4.164h-81.074c-2.295,0-4.163-1.868-4.163-4.164s1.868-4.163,4.163-4.163H188.5  C190.795,189.254,192.663,191.121,192.663,193.417z M188.5,282.926h-81.074c-2.295,0-4.163-1.867-4.163-4.163  s1.868-4.163,4.163-4.163H188.5c2.295,0,4.163,1.867,4.163,4.163S190.795,282.926,188.5,282.926z M192.663,176.252h-89.4v-43.783  h89.4V176.252z M235.33,42.663h-10.567c-3.59,0-6.5,2.91-6.5,6.5v70.306h-18.887c-0.071-0.002-0.141-0.011-0.213-0.011h-102.4  c-0.072,0-0.141,0.008-0.213,0.011H77.663V55.663h112.966c3.59,0,6.5-2.91,6.5-6.5s-2.91-6.5-6.5-6.5H60.596V13H235.33V42.663z" fill="#FFFFFF"/>
<g>
</g>
<g>
</g>
<g>
</g>
<g>
</g>
<g>
</g>
<g>
</g>
<g>
</g>
<g>
</g>
<g>
</g>
<g>
</g>
<g>
</g>
<g>
</g>
<g>
</g>
<g>
</g>
<g>
</g>
</svg>
