<?xml version="1.0" encoding="iso-8859-1"?>
<!-- Generator: Adobe Illustrator 19.0.0, SVG Export Plug-In . SVG Version: 6.00 Build 0)  -->
<svg xmlns="http://www.w3.org/2000/svg" xmlns:xlink="http://www.w3.org/1999/xlink" version="1.1" id="Capa_1" x="0px" y="0px" viewBox="0 0 512 512" style="enable-background:new 0 0 512 512;" xml:space="preserve" width="512px" height="512px">
<g>
	<g>
		<path d="M496,16H16C7.152,16,0,23.168,0,32v448c0,8.832,7.152,16,16,16h480c8.848,0,16-7.168,16-16V32    C512,23.168,504.848,16,496,16z M480,464H32V144h448V464z M480,112H32V48h448V112z" fill="#FFFFFF"/>
	</g>
</g>
<g>
	<g>
		<rect x="48" y="64" width="32" height="32" fill="#FFFFFF"/>
	</g>
</g>
<g>
	<g>
		<rect x="96" y="64" width="32" height="32" fill="#FFFFFF"/>
	</g>
</g>
<g>
	<g>
		<rect x="432" y="64" width="32" height="32" fill="#FFFFFF"/>
	</g>
</g>
<g>
	<g>
		<path d="M160,192H96c-8.848,0-16,7.168-16,16v64c0,8.832,7.152,16,16,16h64c8.848,0,16-7.168,16-16v-64    C176,199.168,168.848,192,160,192z M144,256h-32v-32h32V256z" fill="#FFFFFF"/>
	</g>
</g>
<g>
	<g>
		<path d="M160,320H96c-8.848,0-16,7.168-16,16v64c0,8.832,7.152,16,16,16h64c8.848,0,16-7.168,16-16v-64    C176,327.168,168.848,320,160,320z M144,384h-32v-32h32V384z" fill="#FFFFFF"/>
	</g>
</g>
<g>
	<g>
		<rect x="208" y="192" width="96" height="32" fill="#FFFFFF"/>
	</g>
</g>
<g>
	<g>
		<rect x="208" y="256" width="224" height="32" fill="#FFFFFF"/>
	</g>
</g>
<g>
	<g>
		<rect x="208" y="320" width="96" height="32" fill="#FFFFFF"/>
	</g>
</g>
<g>
	<g>
		<rect x="208" y="384" width="224" height="32" fill="#FFFFFF"/>
	</g>
</g>
<g>
</g>
<g>
</g>
<g>
</g>
<g>
</g>
<g>
</g>
<g>
</g>
<g>
</g>
<g>
</g>
<g>
</g>
<g>
</g>
<g>
</g>
<g>
</g>
<g>
</g>
<g>
</g>
<g>
</g>
</svg>
